<?xml version="1.0" standalone="no"?><!DOCTYPE svg PUBLIC "-//W3C//DTD SVG 1.1//EN" "http://www.w3.org/Graphics/SVG/1.1/DTD/svg11.dtd"><svg t="1557384911632" class="icon" style="" viewBox="0 0 1024 1024" version="1.1" xmlns="http://www.w3.org/2000/svg" p-id="11430" xmlns:xlink="http://www.w3.org/1999/xlink" width="32" height="32"><defs><style type="text/css"></style></defs><path d="M603.420444 469.219556c15.416889-20.650667 29.582222-46.193778 32.199112-68.551112 13.368889-0.967111 34.304-12.8 40.504888-59.335111 3.299556-24.974222-9.898667-39.025778-17.863111-43.463111 0 0 19.911111-36.352 19.911111-80.270222 0-88.064-35.896889-163.214222-113.038222-163.214222 0 0-26.794667-54.385778-113.038222-54.385778-159.800889 0-226.019556 98.702222-226.019556 217.6 0 40.049778 19.911111 80.270222 19.911112 80.270222-8.021333 4.437333-21.219556 18.545778-17.92 43.463111 6.200889 46.535111 27.136 58.311111 40.448 59.278223 5.063111 43.406222 53.589333 98.986667 70.542222 107.064888V580.266667C301.397333 689.038222 0 616.504889 0 870.4h434.119111a313.400889 313.400889 0 0 1-19.683555-108.828444c0-128.341333 77.141333-239.047111 188.984888-292.352z" p-id="11431"></path><path d="M763.164444 512c-144.042667 0-260.835556 114.631111-260.835555 256s116.792889 256 260.835555 256S1024 909.368889 1024 768 907.207111 512 763.164444 512z m128.967112 301.681778h-78.222223v76.8a38.741333 38.741333 0 0 1-39.139555 38.4 38.741333 38.741333 0 0 1-39.139556-38.4v-76.8h-78.222222c-21.617778 0-39.139556-17.180444-39.139556-38.4s17.521778-38.4 39.139556-38.4h78.222222v-76.8c0-21.219556 17.521778-38.4 39.139556-38.4 21.617778 0 39.139556 17.180444 39.139555 38.4v76.8h78.222223c21.617778 0 39.139556 17.180444 39.139555 38.4s-17.521778 38.4-39.139555 38.4z" p-id="11432"></path></svg>