<?xml version="1.0" standalone="no"?><!DOCTYPE svg PUBLIC "-//W3C//DTD SVG 1.1//EN" "http://www.w3.org/Graphics/SVG/1.1/DTD/svg11.dtd"><svg t="1557384885132" class="icon" style="" viewBox="0 0 1024 1024" version="1.1" xmlns="http://www.w3.org/2000/svg" p-id="10077" xmlns:xlink="http://www.w3.org/1999/xlink" width="32" height="32"><defs><style type="text/css"></style></defs><path d="M460.543808 771.967678l-0.768-0.810666c0.128 93.951961 43.263982 182.442591 116.479952 238.933234A1166.719514 1166.719514 0 0 1 404.223832 1023.999573C212.821245 1023.999573 0 1004.074248 0 910.506287v-66.858639c0-87.21063 128.554613-166.826597 269.098555-193.919919 23.893323-12.671995 36.949318-39.765317 32.255986-66.901305A273.237219 273.237219 0 0 1 247.76523 469.333138a61.866641 61.866641 0 0 1-25.258656-19.071992 174.890594 174.890594 0 0 1-27.178655-101.546625c3.114665-33.834653 12.799995-23.082657 12.799994-28.287988a285.013215 285.013215 0 0 1 21.333325-230.143904C302.165207-42.239982 457.471809-3.285332 481.962466 46.506647c147.925272-28.671988 141.738608 208.639913 121.514616 271.95722 0 0 13.610661 2.389332 10.495996 58.495976-3.839998 37.802651-21.930658 72.533303-50.474646 96.76796a314.538536 314.538536 0 0 1-52.053312 107.519955 50.431979 50.431979 0 0 0-6.186664 31.44532 294.485211 294.485211 0 0 0-44.671981 159.2746zM785.493006 1023.999573a238.933234 238.933234 0 1 1-0.853333-477.866467 238.933234 238.933234 0 0 1 0.853333 477.866467z m119.03995-268.458554h-238.506567c-11.519995-1.535999-22.698657 4.607998-28.842654 15.871993a38.869317 38.869317 0 0 0 0 36.693318c6.143997 11.263995 17.365326 17.450659 28.842654 15.871993h238.506567c11.477329 1.578666 22.698657-4.607998 28.842655-15.829326a38.869317 38.869317 0 0 0 0-36.735985c-6.143997-11.263995-17.365326-17.407993-28.842655-15.871993z" p-id="10078"></path></svg>