<?xml version="1.0" standalone="no"?><!DOCTYPE svg PUBLIC "-//W3C//DTD SVG 1.1//EN" "http://www.w3.org/Graphics/SVG/1.1/DTD/svg11.dtd"><svg t="1557384820514" class="icon" style="" viewBox="0 0 1024 1024" version="1.1" xmlns="http://www.w3.org/2000/svg" p-id="9325" xmlns:xlink="http://www.w3.org/1999/xlink" width="32" height="32"><defs><style type="text/css"></style></defs><path d="M512 102.468267c-144.7936 0-204.8 92.8768-204.8 204.8 0 37.6832 17.988267 75.537067 17.988267 75.537066-7.236267 4.164267-19.114667 17.408-16.110934 40.8576 5.597867 43.793067 24.576 54.954667 36.6592 55.876267C350.344533 520.3968 394.24 572.654933 409.6 580.266667v68.266666c-34.133333 102.4-307.2 34.133333-307.2 273.066667h459.195733l1.672534-9.9328a68.266667 68.266667 0 0 1 19.114666-37.4784l154.2144-154.282667C679.5264 703.146667 627.985067 689.3568 614.4 648.533333v-68.266666c15.36-7.611733 59.255467-59.869867 63.863467-100.727467 12.0832-0.9216 31.061333-12.0832 36.6592-55.876267 3.003733-23.517867-8.874667-36.693333-16.110934-40.8576 0 0 17.988267-34.2016 17.988267-75.537066 0-82.875733-32.529067-153.6-102.4-153.6 0 0-24.2688-51.2-102.4-51.2zM963.652267 614.4c-15.428267 0-30.890667 5.905067-42.666667 17.681067l-17.92 17.92 85.333333 85.333333 17.92-17.92A60.347733 60.347733 0 0 0 963.652267 614.4z m-108.8512 83.8656l-224.119467 224.187733L614.4 1024l101.614933-16.213333 224.119467-224.187734-85.333333-85.333333z" p-id="9326"></path></svg>